<?xml version="1.0" encoding="iso-8859-1"?>
<!-- Generator: Adobe Illustrator 19.0.0, SVG Export Plug-In . SVG Version: 6.00 Build 0)  -->
<svg version="1.1" id="Layer_1" xmlns="http://www.w3.org/2000/svg" xmlns:xlink="http://www.w3.org/1999/xlink" x="0px" y="0px"
	 viewBox="0 0 512 512" style="enable-background:new 0 0 512 512;" xml:space="preserve">
<g>
	<path style="fill:#5E5F62;" d="M80.983,512c-4.79,0-8.669-3.888-8.669-8.678c0-1.571,0.425-3.107,1.232-4.452l98.356-164.881
		c2.456-4.113,7.784-5.458,11.897-3.003c4.113,2.456,5.458,7.784,3.003,11.897l0,0L88.447,507.765
		C86.876,510.395,84.038,512.009,80.983,512z"/>
	<path style="fill:#5E5F62;" d="M431.018,512c-3.063,0.009-5.892-1.605-7.454-4.235l-98.356-164.881
		c-2.456-4.113-1.111-9.442,3.003-11.897c4.113-2.456,9.442-1.111,11.897,3.003l0,0l98.356,164.881
		c2.456,4.113,1.119,9.433-2.994,11.897C434.125,511.575,432.58,512,431.018,512z"/>
</g>
<path style="fill:#285680;" d="M143.187,321.085h225.627l0,0v8.678c0,19.17-15.542,34.712-34.712,34.712H177.899
	c-19.17,0-34.712-15.542-34.712-34.712V321.085L143.187,321.085z"/>
<g>
	<path style="fill:#CBB292;" d="M415.519,433.898H96.482c-4.79,0-8.678-3.888-8.678-8.678c0-1.345,0.312-2.673,0.92-3.879
		l8.678-17.356c1.467-2.942,4.469-4.799,7.758-4.799h301.681c3.289,0,6.292,1.857,7.758,4.799l8.678,17.356
		c2.143,4.287,0.408,9.502-3.879,11.646C418.192,433.586,416.864,433.898,415.519,433.898z"/>
	<path style="fill:#CBB292;" d="M467.587,503.322H44.415c-4.79,0-8.678-3.888-8.678-8.678c0-1.345,0.312-2.673,0.92-3.879
		l8.678-17.356c1.467-2.942,4.469-4.799,7.758-4.799h405.816c3.289,0,6.292,1.857,7.758,4.799l8.678,17.356
		c2.143,4.287,0.408,9.502-3.879,11.646C470.26,503.01,468.932,503.322,467.587,503.322z"/>
</g>
<path style="fill:#5E5F62;" d="M221.289,0h69.424c14.379,0,26.034,11.655,26.034,26.034V43.39l0,0H195.255l0,0V26.034
	C195.255,11.655,206.909,0,221.289,0z"/>
<path style="fill:#4482C3;" d="M373.301,329.763h-234.6c-18.831,0.312-34.347-14.692-34.66-33.523
	c-0.026-1.345,0.035-2.69,0.174-4.027L127.48,94.494c4.53-34.521,34.156-60.199,68.972-59.783h119.096
	c34.816-0.417,64.443,25.262,68.972,59.783l23.266,197.719c1.909,18.736-11.724,35.467-30.46,37.376
	C375.991,329.728,374.646,329.789,373.301,329.763z"/>
<g>
	<path style="fill:#F5EFCA;" d="M373.327,329.763h-82.614c0,0,0-48.857,20.827-81.399c20.827-32.542,83.308-48.77,83.308-48.77
		l1.996-0.26l10.934,92.854c1.935,18.718-11.663,35.458-30.382,37.402C376.043,329.728,374.681,329.789,373.327,329.763z"/>
	<path style="fill:#F5EFCA;" d="M221.289,329.763h-82.614c-18.814,0.312-34.321-14.692-34.625-33.506
		c-0.026-1.354,0.035-2.716,0.174-4.07l10.934-92.854l1.996,0.26c0,0,62.481,16.315,83.308,48.77
		C221.289,280.993,221.289,329.763,221.289,329.763z"/>
</g>
<path style="fill:#B0D3F0;" d="M178.428,138.847c-9.042,0.521-16.801-6.387-17.33-15.429c-0.009-0.156-0.017-0.312-0.017-0.46
	l0.885-26.181c3.055-16.453,17.772-28.125,34.486-27.353h119.105c16.714-0.772,31.432,10.9,34.495,27.353l0.885,26.181
	c-0.269,9.06-7.836,16.176-16.887,15.907c-0.156-0.009-0.304-0.009-0.46-0.017H178.428z"/>
<g>
	<circle style="fill:#E57E25;" cx="160.543" cy="277.695" r="17.356"/>
	<circle style="fill:#E57E25;" cx="351.458" cy="277.695" r="17.356"/>
</g>
<circle style="fill:#F3D55B;" cx="256.001" cy="208.271" r="34.712"/>
<path style="fill:#F5EFCA;" d="M256.001,216.949c-1.137-0.017-2.256-0.252-3.298-0.694c-1.059-0.417-2.031-1.041-2.864-1.822
	c-0.373-0.417-0.72-0.85-1.041-1.302c-0.33-0.486-0.59-1.007-0.781-1.562c-0.252-0.495-0.425-1.015-0.529-1.562
	c-0.095-0.573-0.156-1.154-0.174-1.736c0.026-2.3,0.929-4.495,2.517-6.161c0.833-0.79,1.805-1.406,2.864-1.822
	c2.109-0.868,4.478-0.868,6.595,0c1.05,0.443,2.022,1.059,2.864,1.822c1.588,1.666,2.482,3.862,2.517,6.161
	c-0.017,0.581-0.069,1.163-0.182,1.736c-0.087,0.547-0.269,1.076-0.521,1.562c-0.191,0.555-0.451,1.076-0.781,1.562
	c-0.347,0.434-0.694,0.868-1.041,1.302c-0.842,0.764-1.814,1.38-2.864,1.822C258.257,216.697,257.138,216.932,256.001,216.949z"/>
<g>
</g>
<g>
</g>
<g>
</g>
<g>
</g>
<g>
</g>
<g>
</g>
<g>
</g>
<g>
</g>
<g>
</g>
<g>
</g>
<g>
</g>
<g>
</g>
<g>
</g>
<g>
</g>
<g>
</g>
</svg>
